<svg width="61" height="60" viewBox="0 0 61 60" fill="none" xmlns="http://www.w3.org/2000/svg">
    <path d="M39.3426 26.0409L33.4496 7.98954C32.273 4.38562 27.6704 3.35096 25.0647 6.10464L7.9833 24.156C4.96714 27.3434 7.22678 32.5926 11.6151 32.5926H34.5895C37.9893 32.5926 40.3977 29.2728 39.3426 26.0409Z"
          fill="#79F7FF" fill-opacity="0.3" stroke="#67B5BA"/>
    <path d="M20.6574 26.0409L26.5504 7.98954C27.727 4.38562 32.3296 3.35096 34.9353 6.10464L52.0167 24.156C55.0329 27.3434 52.7732 32.5926 48.3849 32.5926H25.4105C22.0107 32.5926 19.6023 29.2728 20.6574 26.0409Z"
          fill="#79FFFF" fill-opacity="0.3" stroke="#67B5BA"/>
    <path d="M39.3426 33.9591L33.4496 52.0105C32.273 55.6144 27.6704 56.649 25.0647 53.8954L7.9833 35.844C4.96714 32.6566 7.22678 27.4074 11.6151 27.4074H34.5895C37.9893 27.4074 40.3977 30.7272 39.3426 33.9591Z"
          fill="white" fill-opacity="0.3" stroke="#67B5BA"/>
    <path d="M21.1389 33.5517L27.032 51.6031C28.2085 55.207 32.8111 56.2416 35.4168 53.488L52.4982 35.4366C55.5144 32.2492 53.2547 27 48.8664 27H25.892C22.4922 27 20.0838 30.3198 21.1389 33.5517Z"
          fill="white" fill-opacity="0.3" stroke="#67B5BA"/>
</svg>